<svg width="4755" height="859" viewBox="0 0 4755 859" fill="none" xmlns="http://www.w3.org/2000/svg">
<path d="M0 57H1606V859H0V57Z" fill="white"/>
<path d="M1023.42 590.468C1023.6 595.139 1028.81 597.826 1032.72 595.257L1337.09 395.07C1341.05 392.469 1340.57 386.526 1336.26 384.585L1019.08 241.965C1015.02 240.14 1010.45 243.214 1010.62 247.661L1023.42 590.468Z" fill="black"/>
<path fill-rule="evenodd" clip-rule="evenodd" d="M1336.54 394.235L1032.17 594.422C1028.91 596.562 1024.57 594.324 1024.42 590.431L1011.62 247.624C1011.48 243.917 1015.28 241.356 1018.67 242.877L1335.85 385.497C1339.44 387.115 1339.84 392.067 1336.54 394.235ZM1032.72 595.257C1028.81 597.826 1023.6 595.139 1023.42 590.468L1010.62 247.661C1010.45 243.214 1015.02 240.14 1019.08 241.965L1336.26 384.585C1340.57 386.526 1341.05 392.469 1337.09 395.07L1032.72 595.257Z" fill="black"/>
<path d="M919.293 598.159C919.468 602.83 924.68 605.516 928.586 602.948L1232.96 402.761C1236.92 400.16 1236.44 394.217 1232.13 392.276L914.946 249.655C910.887 247.83 906.323 250.904 906.489 255.352L919.293 598.159Z" fill="white"/>
<path d="M558.089 598.401C557.917 603.099 552.653 605.783 548.749 603.164L244.189 398.803C240.295 396.191 240.768 390.322 245.03 388.367L562.402 242.774C566.464 240.911 571.064 243.982 570.9 248.447L558.089 598.401Z" fill="black"/>
<path fill-rule="evenodd" clip-rule="evenodd" d="M244.746 397.973L549.307 602.333C552.56 604.516 556.946 602.279 557.089 598.364L569.901 248.41C570.037 244.689 566.204 242.13 562.819 243.683L245.447 389.276C241.896 390.905 241.501 395.796 244.746 397.973ZM548.749 603.164C552.653 605.783 557.917 603.099 558.089 598.401L570.9 248.447C571.064 243.982 566.464 240.911 562.402 242.774L245.03 388.367C240.768 390.322 240.295 396.191 244.189 398.803L548.749 603.164Z" fill="black"/>
<path d="M662.218 606.247C662.046 610.945 656.783 613.629 652.879 611.01L348.318 406.649C344.425 404.037 344.898 398.169 349.16 396.214L666.532 250.62C670.593 248.757 675.193 251.828 675.03 256.293L662.218 606.247Z" fill="white"/>
<path d="M976.132 277.207C976.132 298.467 931.099 315.702 875.548 315.702C819.998 315.702 774.965 298.467 774.965 277.207C774.965 255.947 819.998 238.712 875.548 238.712C931.099 238.712 976.132 255.947 976.132 277.207Z" fill="white"/>
<path d="M976.132 487.727C976.132 510.98 931.099 529.83 875.548 529.83C819.998 529.83 774.965 510.98 774.965 487.727C774.965 464.473 819.998 445.623 875.548 445.623C931.099 445.623 976.132 464.473 976.132 487.727Z" fill="white"/>
<path fill-rule="evenodd" clip-rule="evenodd" d="M783.54 262.964C778.574 267.458 775.965 272.273 775.965 277.207H776.55V281.24C777.575 284.761 779.938 288.19 783.54 291.449C788.506 295.943 795.749 300.036 804.783 303.493C822.844 310.406 847.863 314.702 875.548 314.702C903.233 314.702 928.253 310.406 946.314 303.493C955.348 300.036 962.59 295.943 967.556 291.449C972.522 286.956 975.132 282.141 975.132 277.207C975.132 272.273 972.522 267.458 967.556 262.964C962.59 258.471 955.348 254.378 946.314 250.921C928.253 244.008 903.233 239.712 875.548 239.712C847.863 239.712 822.844 244.008 804.783 250.921C795.749 254.378 788.506 258.471 783.54 262.964ZM774.55 281.52C774.165 280.11 773.965 278.671 773.965 277.207C773.965 271.511 776.985 266.199 782.198 261.481C787.412 256.764 794.9 252.562 804.068 249.053C822.41 242.033 847.683 237.712 875.548 237.712C903.414 237.712 928.686 242.033 947.029 249.053C956.197 252.562 963.685 256.764 968.898 261.481C974.112 266.199 977.132 271.511 977.132 277.207H977.716V487.727H977.132C977.132 493.887 974.145 499.666 968.931 504.826C963.72 509.983 956.231 514.581 947.058 518.421C928.706 526.103 903.423 530.83 875.548 530.83C847.673 530.83 822.391 526.103 804.039 518.421C794.865 514.581 787.377 509.983 782.166 504.826C776.952 499.666 773.965 493.887 773.965 487.727C773.965 486.135 774.164 484.569 774.55 483.033V281.52ZM776.55 477.946V286.191C777.934 288.546 779.842 290.8 782.198 292.932C787.412 297.65 794.9 301.852 804.068 305.361C822.41 312.381 847.683 316.702 875.548 316.702C903.414 316.702 928.686 312.381 947.029 305.361C956.197 301.852 963.685 297.65 968.898 292.932C972.012 290.115 974.344 287.085 975.716 283.888V480.456C974.352 476.993 972.036 473.701 968.931 470.627C963.72 465.47 956.231 460.872 947.058 457.032C928.706 449.35 903.423 444.623 875.548 444.623C847.673 444.623 822.391 449.35 804.039 457.032C794.865 460.872 787.377 465.47 782.166 470.627C779.82 472.949 777.925 475.396 776.55 477.946ZM775.965 487.727H776.55V483.29C777.582 479.395 779.964 475.621 783.573 472.049C788.542 467.131 795.783 462.656 804.811 458.877C822.864 451.32 847.873 446.623 875.548 446.623C903.224 446.623 928.233 451.32 946.285 458.877C955.314 462.656 962.555 467.131 967.524 472.049C972.489 476.963 975.132 482.26 975.132 487.727C975.132 493.193 972.489 498.49 967.524 503.405C962.555 508.322 955.314 512.797 946.285 516.576C928.233 524.133 903.224 528.83 875.548 528.83C847.873 528.83 822.864 524.133 804.811 516.576C795.783 512.797 788.542 508.322 783.573 503.405C778.608 498.49 775.965 493.193 775.965 487.727Z" fill="black"/>
<path d="M976.132 277.207C976.132 298.467 931.099 315.702 875.548 315.702C819.998 315.702 774.965 298.467 774.965 277.207C774.965 255.947 819.998 238.712 875.548 238.712C931.099 238.712 976.132 255.947 976.132 277.207Z" fill="white"/>
<path d="M976.132 487.727C976.132 510.98 931.099 529.83 875.548 529.83C819.998 529.83 774.965 510.98 774.965 487.727C774.965 464.473 819.998 445.623 875.548 445.623C931.099 445.623 976.132 464.473 976.132 487.727Z" fill="white"/>
<path fill-rule="evenodd" clip-rule="evenodd" d="M784.547 264.077C779.766 268.402 777.465 272.843 777.465 277.207H778.05V281.018C779.008 284.136 781.152 287.266 784.547 290.337C789.327 294.663 796.385 298.673 805.319 302.092C823.169 308.924 847.998 313.202 875.548 313.202C903.098 313.202 927.927 308.924 945.778 302.092C954.712 298.673 961.769 294.663 966.55 290.337C971.33 286.012 973.632 281.57 973.632 277.207C973.632 272.843 971.33 268.402 966.55 264.077C961.769 259.751 954.712 255.741 945.778 252.322C927.927 245.49 903.098 241.212 875.548 241.212C847.998 241.212 823.169 245.49 805.319 252.322C796.385 255.741 789.327 259.751 784.547 264.077ZM773.05 281.72C772.666 280.253 772.465 278.748 772.465 277.207C772.465 270.94 775.793 265.255 781.192 260.369C786.591 255.484 794.263 251.199 803.532 247.652C822.085 240.551 847.548 236.212 875.548 236.212C903.549 236.212 929.011 240.551 947.565 247.652C956.833 251.199 964.506 255.484 969.905 260.369C975.304 265.255 978.632 270.94 978.632 277.207H979.216V487.727H978.632C978.632 494.407 975.387 500.547 969.986 505.892C964.594 511.228 956.919 515.919 947.637 519.805C929.061 527.58 903.572 532.33 875.548 532.33C847.524 532.33 822.036 527.58 803.46 519.805C794.177 515.919 786.503 511.228 781.111 505.892C775.71 500.547 772.465 494.407 772.465 487.727C772.465 486.066 772.666 484.439 773.05 482.849V281.72ZM778.05 472.972V290.832C778.996 291.938 780.048 293.009 781.192 294.045C786.591 298.93 794.263 303.215 803.532 306.762C822.085 313.863 847.548 318.202 875.548 318.202C903.549 318.202 929.011 313.863 947.565 306.762C956.833 303.215 964.506 298.93 969.905 294.045C971.545 292.561 972.994 291.003 974.216 289.377V474.552C973.018 472.822 971.598 471.156 969.986 469.561C964.594 464.225 956.919 459.534 947.637 455.648C929.061 447.873 903.572 443.123 875.548 443.123C847.524 443.123 822.036 447.873 803.46 455.648C794.177 459.534 786.503 464.225 781.111 469.561C779.995 470.665 778.972 471.803 778.05 472.972ZM777.465 487.727H778.05V483.491C779.024 479.975 781.215 476.492 784.628 473.115C789.416 468.376 796.471 463.994 805.391 460.261C823.219 452.798 848.022 448.123 875.548 448.123C903.075 448.123 927.878 452.798 945.706 460.261C954.626 463.994 961.681 468.376 966.469 473.115C971.247 477.844 973.632 482.78 973.632 487.727C973.632 492.673 971.247 497.609 966.469 502.338C961.681 507.077 954.626 511.459 945.706 515.192C927.878 522.655 903.075 527.33 875.548 527.33C848.022 527.33 823.219 522.655 805.391 515.192C796.471 511.459 789.416 507.077 784.628 502.338C779.849 497.609 777.465 492.673 777.465 487.727Z" fill="black"/>
<path fill-rule="evenodd" clip-rule="evenodd" d="M854.712 481.673C849.409 484.623 846.309 488.599 846.309 492.842H846.482V494.572C847.202 498.156 850.137 501.465 854.712 504.011C859.993 506.948 867.328 508.784 875.462 508.784C883.596 508.784 890.931 506.948 896.211 504.011C901.515 501.06 904.615 497.084 904.615 492.842C904.615 488.599 901.515 484.623 896.211 481.673C890.931 478.735 883.596 476.9 875.462 476.9C867.328 476.9 859.993 478.735 854.712 481.673ZM845.312 494.698C845.198 494.09 845.139 493.471 845.139 492.842C845.139 487.947 848.697 483.652 854.156 480.615C859.638 477.565 867.172 475.697 875.462 475.697C883.752 475.697 891.285 477.565 896.768 480.615C902.227 483.652 905.784 487.947 905.784 492.842H905.957V583.313H905.784C905.784 588.608 902.261 593.295 896.787 596.625C891.301 599.963 883.76 602.009 875.462 602.009C867.164 602.009 859.623 599.963 854.136 596.625C848.663 593.295 845.139 588.608 845.139 583.313C845.139 582.629 845.198 581.955 845.312 581.294V494.698ZM846.482 577.773V497.932C847.991 500.705 850.69 503.141 854.156 505.069C859.638 508.119 867.172 509.986 875.462 509.986C883.752 509.986 891.285 508.119 896.768 505.069C900.517 502.983 903.369 500.304 904.788 497.245V578.521C903.375 575.204 900.539 572.284 896.787 570.001C891.301 566.662 883.76 564.617 875.462 564.617C867.164 564.617 859.623 566.662 854.136 570.001C850.669 572.11 847.984 574.765 846.482 577.773ZM846.309 583.313H846.482V581.409C847.205 577.445 850.165 573.815 854.732 571.036C860.009 567.825 867.336 565.82 875.462 565.82C883.587 565.82 890.915 567.825 896.192 571.036C901.481 574.255 904.615 578.615 904.615 583.313C904.615 588.011 901.481 592.371 896.192 595.59C890.915 598.8 883.587 600.806 875.462 600.806C867.336 600.806 860.009 598.8 854.732 595.59C849.442 592.371 846.309 588.011 846.309 583.313Z" fill="black"/>
<path fill-rule="evenodd" clip-rule="evenodd" d="M853.67 479.741C859.327 476.594 867.035 474.697 875.462 474.697C883.889 474.697 891.597 476.594 897.254 479.741C902.506 482.663 906.29 486.858 906.739 491.842H906.957V584.313H906.746C906.331 589.663 902.615 594.25 897.307 597.479C891.64 600.928 883.913 603.009 875.462 603.009C867.011 603.009 859.284 600.928 853.617 597.479C847.981 594.05 844.139 589.091 844.139 583.313C844.139 582.601 844.198 581.9 844.312 581.21V494.789C844.198 494.151 844.139 493.501 844.139 492.842C844.139 487.42 848.07 482.856 853.67 479.741ZM904.957 579.445V578.69L904.692 578.744C904.787 578.976 904.876 579.21 904.957 579.445ZM904.957 497.062V496.39C904.879 496.597 904.795 496.802 904.703 497.006L904.957 497.062ZM846.54 497.662C846.461 497.511 846.385 497.358 846.312 497.204V497.72L846.54 497.662ZM846.312 577.969L846.555 578.026C846.47 578.202 846.389 578.378 846.312 578.556V577.969ZM847.362 584.313H847.482V581.501C848.164 577.946 850.866 574.559 855.252 571.89C860.347 568.79 867.489 566.82 875.462 566.82C883.435 566.82 890.576 568.79 895.672 571.89C900.798 575.009 903.615 579.097 903.615 583.313C903.615 587.529 900.798 591.617 895.672 594.735C890.576 597.836 883.435 599.806 875.462 599.806C867.489 599.806 860.347 597.836 855.252 594.735C850.532 591.864 847.77 588.171 847.362 584.313ZM847.482 574.389C849.079 572.396 851.176 570.632 853.617 569.146C859.284 565.698 867.011 563.617 875.462 563.617C883.913 563.617 891.64 565.698 897.307 569.146C899.927 570.741 902.152 572.658 903.788 574.835V500.678C902.134 502.707 899.884 504.479 897.254 505.943C891.597 509.09 883.889 510.986 875.462 510.986C867.035 510.986 859.327 509.09 853.67 505.943C851.217 504.578 849.097 502.946 847.482 501.089V574.389ZM847.375 491.842H847.482V494.469C848.154 497.618 850.798 500.689 855.199 503.137C860.304 505.977 867.465 507.784 875.462 507.784C883.458 507.784 890.62 505.977 895.725 503.137C900.887 500.265 903.615 496.557 903.615 492.842C903.615 489.126 900.887 485.418 895.725 482.547C890.62 479.706 883.458 477.9 875.462 477.9C867.465 477.9 860.304 479.706 855.199 482.547C850.5 485.16 847.818 488.467 847.375 491.842Z" fill="black"/>
<path fill-rule="evenodd" clip-rule="evenodd" d="M803.028 457.652L801.865 250.742L803.865 250.73L805.028 457.64L803.028 457.652Z" fill="black"/>
<path fill-rule="evenodd" clip-rule="evenodd" d="M948.055 457.652L946.892 250.742L948.892 250.73L950.055 457.64L948.055 457.652Z" fill="black"/>
<path fill-rule="evenodd" clip-rule="evenodd" d="M875.57 445.622L874.379 238.712L876.379 238.7L877.57 445.611L875.57 445.622Z" fill="black"/>
<path d="M921.632 344.272C921.632 371.202 900.903 393.033 875.332 393.033C849.762 393.033 829.032 371.202 829.032 344.272C829.032 317.342 849.762 295.511 875.332 295.511C900.903 295.511 921.632 317.342 921.632 344.272Z" fill="black"/>
<path fill-rule="evenodd" clip-rule="evenodd" d="M875.332 391.033C899.702 391.033 919.632 370.196 919.632 344.272C919.632 318.347 899.702 297.511 875.332 297.511C850.962 297.511 831.032 318.347 831.032 344.272C831.032 370.196 850.962 391.033 875.332 391.033ZM875.332 393.033C900.903 393.033 921.632 371.202 921.632 344.272C921.632 317.342 900.903 295.511 875.332 295.511C849.762 295.511 829.032 317.342 829.032 344.272C829.032 371.202 849.762 393.033 875.332 393.033Z" fill="black"/>
<path d="M886.193 343.67C886.193 350.319 881.074 355.709 874.761 355.709C868.447 355.709 863.329 350.319 863.329 343.67C863.329 337.02 868.447 331.63 874.761 331.63C881.074 331.63 886.193 337.02 886.193 343.67Z" fill="white"/>
<path fill-rule="evenodd" clip-rule="evenodd" d="M874.761 353.709C879.874 353.709 884.193 349.313 884.193 343.67C884.193 338.026 879.874 333.63 874.761 333.63C869.648 333.63 865.329 338.026 865.329 343.67C865.329 349.313 869.648 353.709 874.761 353.709ZM874.761 355.709C881.074 355.709 886.193 350.319 886.193 343.67C886.193 337.02 881.074 331.63 874.761 331.63C868.447 331.63 863.329 337.02 863.329 343.67C863.329 350.319 868.447 355.709 874.761 355.709Z" fill="black"/>
<path d="M880.477 343.67C880.477 346.994 877.918 349.69 874.761 349.69C871.604 349.69 869.045 346.994 869.045 343.67C869.045 340.345 871.604 337.65 874.761 337.65C877.918 337.65 880.477 340.345 880.477 343.67Z" fill="black"/>
<path fill-rule="evenodd" clip-rule="evenodd" d="M874.761 347.69C876.717 347.69 878.477 345.989 878.477 343.67C878.477 341.351 876.717 339.65 874.761 339.65C872.805 339.65 871.045 341.351 871.045 343.67C871.045 345.989 872.805 347.69 874.761 347.69ZM874.761 349.69C877.918 349.69 880.477 346.994 880.477 343.67C880.477 340.345 877.918 337.65 874.761 337.65C871.604 337.65 869.045 340.345 869.045 343.67C869.045 346.994 871.604 349.69 874.761 349.69Z" fill="black"/>
<g filter="url(#filter0_d)">
<path d="M698.79 177L742.992 186.351L653.242 670.384L609.04 661.032L698.79 177Z" fill="black"/>
</g>
<g filter="url(#filter1_d)">
<path fill-rule="evenodd" clip-rule="evenodd" d="M741.831 187.128L699.586 178.19L610.201 660.256L652.446 669.194L741.831 187.128ZM698.79 177L609.04 661.032L653.242 670.384L742.992 186.351L698.79 177Z" fill="black"/>
</g>
<path fill-rule="evenodd" clip-rule="evenodd" d="M874.589 357.814C880.443 357.814 887.126 352.378 887.126 343.2C887.126 334.022 880.443 328.586 874.589 328.586C868.735 328.586 862.052 334.022 862.052 343.2C862.052 352.378 868.735 357.814 874.589 357.814ZM874.589 374.814C890.902 374.814 904.126 360.66 904.126 343.2C904.126 325.74 890.902 311.586 874.589 311.586C858.276 311.586 845.052 325.74 845.052 343.2C845.052 360.66 858.276 374.814 874.589 374.814Z" fill="white"/>
<path d="M4508 741C4508 758.121 3586.83 772 2450.5 772C1314.17 772 393 758.121 393 741C393 723.879 1314.17 710 2450.5 710C3586.83 710 4508 723.879 4508 741Z" fill="black"/>
<path d="M1465.26 453.836C1510.89 456.901 1541.79 458.534 1557.96 458.734C1561.79 458.782 1564.8 457.736 1567 455.596C1569.36 453.292 1570.56 450.223 1570.61 446.39L1570.89 423.892L1513.39 423.18C1495.9 422.963 1483.2 418.889 1475.29 410.957C1467.56 402.861 1463.8 390.063 1464.02 372.564L1464.11 365.065C1464.33 347.566 1468.4 334.949 1476.33 327.213C1484.43 319.313 1497.23 315.471 1514.73 315.688L1602.47 316.775L1602.04 351.772L1524.29 350.809C1514.29 350.685 1509.23 355.623 1509.11 365.622L1509.05 370.622C1508.92 380.621 1513.86 385.683 1523.86 385.806L1568.85 386.364C1585.19 386.566 1597.14 390.548 1604.71 398.309C1612.28 406.07 1615.97 418.116 1615.76 434.449L1615.61 446.948C1615.41 463.28 1611.42 475.231 1603.66 482.802C1595.9 490.373 1583.86 494.058 1567.52 493.856C1559.02 493.75 1550.03 493.472 1540.53 493.021L1517.55 491.736C1500.56 490.693 1482.99 489.308 1464.84 487.583L1465.26 453.836ZM1732.52 493.399C1716.34 494.865 1700.49 495.503 1684.99 495.311C1673.66 495.17 1664.62 491.641 1657.87 484.724C1651.13 477.806 1647.82 468.682 1647.96 457.349L1648.75 393.604L1633.75 393.418L1634.17 359.671L1649.17 359.857L1654.54 329.921L1693.29 330.401L1692.92 360.398L1724.16 360.785L1723.75 394.533L1692.5 394.146L1691.79 451.641C1691.76 454.141 1692.56 456.235 1694.21 457.922C1695.85 459.609 1697.93 460.468 1700.43 460.499L1732.92 460.902L1732.52 493.399ZM1832.56 398.381C1822.06 398.251 1811.2 400.617 1799.97 405.478L1798.87 494.221L1755.13 493.679L1756.77 361.189L1795.52 361.669L1797.81 377.949C1812.3 365.627 1827.38 359.564 1843.04 359.758L1854.29 359.897L1853.81 398.644L1832.56 398.381ZM1922.76 391.998C1916.09 391.915 1912.72 395.207 1912.63 401.873L1912.46 415.622L1954.96 416.148L1955.13 402.399C1955.21 395.733 1951.92 392.359 1945.26 392.276L1922.76 391.998ZM1992.75 494.122C1960.54 497.057 1931.36 498.362 1905.19 498.038C1893.86 497.898 1884.82 494.369 1878.07 487.451C1871.32 480.534 1868.02 471.409 1868.16 460.077L1868.9 400.081C1869.06 387.582 1872.68 377.876 1879.76 370.963C1887.02 363.886 1896.9 360.425 1909.4 360.58L1959.39 361.199C1971.89 361.354 1981.6 365.058 1988.51 372.31C1995.59 379.399 1999.05 389.192 1998.89 401.691L1998.32 447.938L1912.08 446.869L1911.95 456.869C1911.92 459.368 1912.73 461.462 1914.38 463.149C1916.02 464.836 1918.09 465.695 1920.59 465.726C1937.09 465.931 1961.27 464.98 1993.14 462.875L1992.75 494.122ZM2077.65 393.916C2070.98 393.834 2067.61 397.125 2067.52 403.791L2067.35 417.54L2109.85 418.067L2110.02 404.318C2110.1 397.652 2106.81 394.277 2100.15 394.195L2077.65 393.916ZM2147.64 496.041C2115.43 498.975 2086.25 500.281 2060.08 499.957C2048.75 499.816 2039.71 496.287 2032.96 489.37C2026.21 482.452 2022.91 473.328 2023.05 461.995L2023.79 402C2023.95 389.501 2027.57 379.795 2034.66 372.882C2041.91 365.805 2051.79 362.343 2064.29 362.498L2114.28 363.117C2126.78 363.272 2136.49 366.976 2143.4 374.229C2150.48 381.317 2153.94 391.111 2153.78 403.61L2153.21 449.856L2066.97 448.788L2066.84 458.787C2066.81 461.287 2067.62 463.381 2069.27 465.068C2070.91 466.755 2072.98 467.614 2075.48 467.645C2091.98 467.849 2116.16 466.899 2148.03 464.793L2147.64 496.041ZM2272.5 500.088C2256.31 501.554 2240.47 502.191 2224.97 501.999C2213.64 501.859 2204.6 498.33 2197.85 491.412C2191.1 484.495 2187.8 475.37 2187.94 464.037L2188.73 400.292L2173.73 400.107L2174.15 366.359L2189.15 366.545L2194.52 336.609L2233.27 337.089L2232.89 367.087L2264.14 367.474L2263.72 401.221L2232.48 400.834L2231.76 458.33C2231.73 460.83 2232.54 462.923 2234.19 464.61C2235.83 466.297 2237.91 467.157 2240.41 467.188L2272.9 467.59L2272.5 500.088ZM2372.75 465.077C2418.38 468.142 2449.28 469.775 2465.45 469.975C2469.28 470.022 2472.29 468.976 2474.49 466.837C2476.85 464.532 2478.05 461.464 2478.1 457.631L2478.38 435.132L2420.88 434.42C2403.38 434.204 2390.68 430.129 2382.78 422.197C2375.05 414.101 2371.29 401.304 2371.51 383.805L2371.6 376.305C2371.82 358.807 2375.89 346.19 2383.82 338.454C2391.92 330.554 2404.72 326.712 2422.21 326.929L2509.96 328.015L2509.52 363.013L2431.78 362.05C2421.78 361.926 2416.72 366.864 2416.6 376.863L2416.53 381.862C2416.41 391.862 2421.35 396.923 2431.35 397.047L2476.34 397.604C2492.68 397.807 2504.63 401.788 2512.2 409.549C2519.77 417.31 2523.45 429.357 2523.25 445.689L2523.1 458.188C2522.89 474.52 2518.91 486.472 2511.15 494.043C2503.39 501.614 2491.34 505.298 2475.01 505.096C2466.51 504.991 2457.52 504.713 2448.02 504.262L2425.03 502.977C2408.05 501.933 2390.48 500.549 2372.33 498.824L2372.75 465.077ZM2637.93 369.604C2651.43 369.771 2661.79 374.899 2669 384.99C2676.73 379.918 2685.02 376.271 2693.88 374.047C2702.91 371.659 2710.93 370.508 2717.93 370.594L2720.43 370.625C2731.76 370.766 2740.8 374.295 2747.55 381.212C2754.3 388.13 2757.6 397.255 2757.46 408.587L2756.25 506.08L2712.51 505.538L2713.62 415.545C2713.65 413.045 2712.84 410.951 2711.2 409.264C2709.55 407.577 2707.48 406.718 2704.98 406.687L2703.73 406.671C2696.23 406.578 2686.63 408.126 2674.92 411.315L2673.76 505.058L2630.01 504.516L2631.13 414.523C2631.16 412.023 2630.35 409.929 2628.7 408.242C2627.06 406.555 2624.99 405.696 2622.49 405.665L2621.24 405.65C2613.74 405.557 2604.13 407.105 2592.43 410.293L2591.26 504.036L2547.52 503.494L2549.16 371.004L2587.91 371.484L2590.25 384.014C2598.15 378.945 2606.19 375.294 2614.39 373.062C2622.75 370.666 2629.77 369.502 2635.43 369.573L2637.93 369.604ZM2836.6 474.572C2845.43 474.682 2855.45 473.139 2866.66 469.944L2866.85 454.945L2830.6 454.496C2828.1 454.465 2826 455.273 2824.32 456.919C2822.63 458.565 2821.77 460.638 2821.74 463.137L2821.71 465.637C2821.68 468.137 2822.49 470.23 2824.13 471.918C2825.78 473.605 2827.85 474.464 2830.35 474.495L2836.6 474.572ZM2791.56 376.507C2822.1 373.552 2849.62 372.226 2874.12 372.529C2885.45 372.669 2894.49 376.198 2901.24 383.116C2907.99 390.033 2911.29 399.158 2911.15 410.491L2909.94 507.983L2871.19 507.503L2868.85 494.973C2860.95 500.043 2852.82 503.775 2844.46 506.172C2836.26 508.404 2829.33 509.485 2823.67 509.415L2814.92 509.306C2803.59 509.166 2794.55 505.637 2787.8 498.72C2781.05 491.802 2777.74 482.677 2777.89 471.345L2778.02 460.096C2778.16 448.763 2781.69 439.723 2788.61 432.975C2795.53 426.227 2804.65 422.923 2815.99 423.063L2867.23 423.698L2867.36 413.699C2867.39 411.199 2866.58 409.105 2864.93 407.418C2863.29 405.731 2861.21 404.872 2858.72 404.841C2847.88 404.707 2835.88 405.058 2822.7 405.895C2809.69 406.734 2799.18 407.354 2791.17 407.755L2791.56 376.507ZM3014.81 413.025C3004.31 412.895 2993.44 415.26 2982.22 420.122L2981.12 508.865L2937.37 508.323L2939.01 375.833L2977.76 376.313L2980.06 392.593C2994.54 380.271 3009.62 374.208 3025.29 374.402L3036.54 374.541L3036.06 413.288L3014.81 413.025ZM3149.85 510.955C3133.66 512.421 3117.82 513.058 3102.32 512.866C3090.99 512.726 3081.94 509.197 3075.2 502.28C3068.45 495.362 3065.14 486.237 3065.29 474.905L3066.07 411.16L3051.08 410.974L3051.49 377.226L3066.49 377.412L3071.86 347.476L3110.61 347.956L3110.24 377.954L3141.49 378.341L3141.07 412.088L3109.82 411.701L3109.11 469.197C3109.08 471.697 3109.89 473.79 3111.53 475.478C3113.18 477.165 3115.25 478.024 3117.75 478.055L3150.25 478.457L3149.85 510.955ZM3354.56 338.477C3373.39 338.71 3387.58 343.803 3397.12 353.755C3406.83 363.543 3411.57 377.853 3411.34 396.685L3410.6 456.68C3410.36 475.512 3405.27 489.783 3395.31 499.494C3385.53 509.04 3371.22 513.697 3352.39 513.464L3254.9 512.256L3257.06 337.269L3354.56 338.477ZM3366.34 396.127C3366.53 381.129 3359.12 373.536 3344.12 373.35L3301.63 372.824L3300.33 477.816L3342.82 478.342C3357.82 478.528 3365.41 471.122 3365.6 456.123L3366.34 396.127ZM3489.84 411.408C3483.18 411.326 3479.8 414.617 3479.72 421.284L3479.55 435.033L3522.05 435.559L3522.22 421.81C3522.3 415.144 3519.01 411.769 3512.34 411.687L3489.84 411.408ZM3559.83 513.533C3527.63 516.468 3498.44 517.773 3472.28 517.449C3460.95 517.308 3451.91 513.779 3445.16 506.862C3438.41 499.945 3435.11 490.82 3435.25 479.487L3435.99 419.492C3436.14 406.993 3439.77 397.287 3446.85 390.374C3454.11 383.297 3463.98 379.835 3476.48 379.99L3526.48 380.61C3538.98 380.764 3548.68 384.468 3555.59 391.721C3562.67 398.809 3566.13 408.603 3565.98 421.102L3565.41 467.348L3479.16 466.28L3479.04 476.279C3479.01 478.779 3479.82 480.873 3481.46 482.56C3483.11 484.247 3485.18 485.106 3487.68 485.137C3504.18 485.341 3528.36 484.391 3560.22 482.285L3559.83 513.533ZM3680.15 385.013L3726.39 385.586L3674.76 517.457L3624.76 516.837L3576.4 383.728L3622.65 384.301L3650.28 474.65L3680.15 385.013ZM3789.86 415.124C3783.19 415.042 3779.82 418.334 3779.74 425L3779.57 438.749L3822.06 439.275L3822.23 425.526C3822.32 418.86 3819.02 415.486 3812.36 415.403L3789.86 415.124ZM3859.85 517.249C3827.65 520.184 3798.46 521.489 3772.3 521.165C3760.96 521.025 3751.92 517.496 3745.17 510.578C3738.43 503.661 3735.12 494.536 3735.26 483.203L3736.01 423.208C3736.16 410.709 3739.78 401.003 3746.87 394.09C3754.12 387.013 3764 383.552 3776.5 383.706L3826.49 384.326C3838.99 384.481 3848.7 388.184 3855.61 395.437C3862.69 402.525 3866.15 412.319 3866 424.818L3865.42 471.064L3779.18 469.996L3779.06 479.995C3779.03 482.495 3779.83 484.589 3781.48 486.276C3783.12 487.963 3785.2 488.822 3787.7 488.853C3804.2 489.058 3828.38 488.107 3860.24 486.001L3859.85 517.249ZM3959.71 520.986C3948.53 522.514 3937.85 523.216 3927.69 523.09C3917.69 522.966 3909.31 519.445 3902.56 512.528C3895.82 505.61 3892.51 496.485 3892.65 485.153L3894.39 345.164L3938.13 345.705L3936.48 479.445C3936.45 481.945 3937.25 484.038 3938.9 485.726C3940.55 487.413 3942.62 488.272 3945.12 488.303L3960.12 488.489L3959.71 520.986ZM4117.63 485.439C4117.47 497.938 4113.77 507.727 4106.51 514.804C4099.43 521.717 4089.63 525.096 4077.14 524.941L4019.64 524.229C4007.14 524.074 3997.35 520.452 3990.27 513.364C3983.36 506.111 3979.98 496.235 3980.14 483.736L3980.85 426.241C3981.01 413.742 3984.63 404.036 3991.71 397.123C3998.97 390.046 4008.84 386.584 4021.34 386.739L4078.84 387.451C4091.34 387.606 4101.04 391.31 4107.95 398.563C4115.03 405.651 4118.49 415.445 4118.34 427.944L4117.63 485.439ZM4074.55 431.152C4074.63 424.485 4071.34 421.111 4064.67 421.028L4034.67 420.657C4028.01 420.574 4024.63 423.866 4024.55 430.532L4023.93 480.528C4023.85 487.195 4027.14 490.569 4033.81 490.652L4063.8 491.023C4070.47 491.106 4073.85 487.814 4073.93 481.148L4074.55 431.152ZM4219.6 425.448C4210.77 425.338 4200.75 426.881 4189.54 430.076L4188.8 490.071L4226.29 490.536C4232.96 490.618 4236.33 487.326 4236.42 480.66L4236.99 434.414C4237.02 431.914 4236.21 429.82 4234.57 428.133C4232.92 426.446 4230.85 425.587 4228.35 425.556L4219.6 425.448ZM4188.38 523.819L4187.85 566.315L4144.11 565.773L4146.27 390.787L4185.02 391.267L4187.37 403.797C4195.26 398.727 4203.31 395.077 4211.5 392.845C4219.87 390.448 4226.88 389.285 4232.55 389.355L4243.8 389.495C4255.13 389.635 4264.17 393.164 4270.92 400.081C4277.67 406.999 4280.97 416.124 4280.83 427.456L4280.12 484.952C4279.96 497.451 4276.26 507.239 4269 514.316C4261.92 521.229 4252.12 524.608 4239.62 524.453L4188.38 523.819ZM4359.62 422.182C4352.96 422.099 4349.58 425.391 4349.5 432.057L4349.33 445.806L4391.82 446.332L4391.99 432.583C4392.08 425.917 4388.79 422.543 4382.12 422.46L4359.62 422.182ZM4429.61 524.306C4397.41 527.241 4368.22 528.546 4342.06 528.222C4330.72 528.082 4321.68 524.553 4314.94 517.636C4308.19 510.718 4304.88 501.593 4305.02 490.261L4305.77 430.265C4305.92 417.766 4309.54 408.06 4316.63 401.148C4323.88 394.07 4333.76 390.609 4346.26 390.764L4396.26 391.383C4408.75 391.538 4418.46 395.242 4425.37 402.494C4432.45 409.583 4435.91 419.376 4435.76 431.875L4435.18 478.122L4348.94 477.054L4348.82 487.053C4348.79 489.553 4349.59 491.646 4351.24 493.333C4352.89 495.02 4354.96 495.88 4357.46 495.911C4373.96 496.115 4398.14 495.164 4430 493.059L4429.61 524.306ZM4539.42 431.909C4528.92 431.779 4518.05 434.145 4506.83 439.006L4505.73 527.749L4461.98 527.207L4463.62 394.718L4502.37 395.198L4504.67 411.477C4519.15 399.156 4534.23 393.092 4549.9 393.286L4561.15 393.425L4560.67 432.172L4539.42 431.909Z" fill="black"/>
<defs>
<filter id="filter0_d" x="605.04" y="177" width="141.951" height="501.384" filterUnits="userSpaceOnUse" color-interpolation-filters="sRGB">
<feFlood flood-opacity="0" result="BackgroundImageFix"/>
<feColorMatrix in="SourceAlpha" type="matrix" values="0 0 0 0 0 0 0 0 0 0 0 0 0 0 0 0 0 0 127 0"/>
<feOffset dy="4"/>
<feGaussianBlur stdDeviation="2"/>
<feColorMatrix type="matrix" values="0 0 0 0 0 0 0 0 0 0 0 0 0 0 0 0 0 0 0.25 0"/>
<feBlend mode="normal" in2="BackgroundImageFix" result="effect1_dropShadow"/>
<feBlend mode="normal" in="SourceGraphic" in2="effect1_dropShadow" result="shape"/>
</filter>
<filter id="filter1_d" x="605.04" y="177" width="141.951" height="501.384" filterUnits="userSpaceOnUse" color-interpolation-filters="sRGB">
<feFlood flood-opacity="0" result="BackgroundImageFix"/>
<feColorMatrix in="SourceAlpha" type="matrix" values="0 0 0 0 0 0 0 0 0 0 0 0 0 0 0 0 0 0 127 0"/>
<feOffset dy="4"/>
<feGaussianBlur stdDeviation="2"/>
<feColorMatrix type="matrix" values="0 0 0 0 0 0 0 0 0 0 0 0 0 0 0 0 0 0 0.25 0"/>
<feBlend mode="normal" in2="BackgroundImageFix" result="effect1_dropShadow"/>
<feBlend mode="normal" in="SourceGraphic" in2="effect1_dropShadow" result="shape"/>
</filter>
</defs>
</svg>
