<svg width="1606" height="802" viewBox="0 0 1606 802" fill="none" xmlns="http://www.w3.org/2000/svg">
<path d="M0 0H1606V802H0V0Z" fill="white"/>
<path fill-rule="evenodd" clip-rule="evenodd" d="M1549 57H57V745H1549V57ZM0 0V802H1606V0H0Z" fill="black"/>
<path d="M1023.42 533.468C1023.6 538.14 1028.81 540.826 1032.72 538.257L1337.09 338.07C1341.05 335.469 1340.57 329.526 1336.26 327.585L1019.08 184.965C1015.02 183.14 1010.45 186.214 1010.62 190.661L1023.42 533.468Z" fill="black"/>
<path fill-rule="evenodd" clip-rule="evenodd" d="M1336.54 337.235L1032.17 537.422C1028.91 539.562 1024.57 537.324 1024.42 533.431L1011.62 190.624C1011.48 186.917 1015.28 184.356 1018.67 185.877L1335.85 328.497C1339.44 330.115 1339.84 335.067 1336.54 337.235ZM1032.72 538.257C1028.81 540.826 1023.6 538.14 1023.42 533.468L1010.62 190.661C1010.45 186.214 1015.02 183.14 1019.08 184.965L1336.26 327.585C1340.57 329.526 1341.05 335.469 1337.09 338.07L1032.72 538.257Z" fill="black"/>
<path d="M919.293 541.159C919.468 545.83 924.68 548.517 928.586 545.948L1232.96 345.761C1236.92 343.16 1236.44 337.217 1232.13 335.276L914.946 192.655C910.887 190.83 906.323 193.904 906.489 198.352L919.293 541.159Z" fill="white"/>
<path d="M558.089 541.401C557.917 546.099 552.653 548.783 548.749 546.164L244.189 341.803C240.295 339.191 240.768 333.322 245.03 331.367L562.402 185.774C566.464 183.911 571.064 186.982 570.9 191.447L558.089 541.401Z" fill="black"/>
<path fill-rule="evenodd" clip-rule="evenodd" d="M244.746 340.973L549.307 545.333C552.56 547.516 556.946 545.279 557.089 541.364L569.901 191.41C570.037 187.689 566.204 185.13 562.819 186.683L245.447 332.276C241.896 333.905 241.501 338.796 244.746 340.973ZM548.749 546.164C552.653 548.783 557.917 546.099 558.089 541.401L570.9 191.447C571.064 186.982 566.464 183.911 562.402 185.774L245.03 331.367C240.768 333.322 240.295 339.191 244.189 341.803L548.749 546.164Z" fill="black"/>
<path d="M662.218 549.247C662.046 553.945 656.783 556.629 652.879 554.01L348.318 349.649C344.425 347.037 344.898 341.169 349.16 339.214L666.532 193.62C670.593 191.757 675.193 194.828 675.03 199.293L662.218 549.247Z" fill="white"/>
<path d="M976.132 220.207C976.132 241.467 931.099 258.702 875.548 258.702C819.998 258.702 774.965 241.467 774.965 220.207C774.965 198.947 819.998 181.712 875.548 181.712C931.099 181.712 976.132 198.947 976.132 220.207Z" fill="white"/>
<path d="M976.132 430.727C976.132 453.98 931.099 472.83 875.548 472.83C819.998 472.83 774.965 453.98 774.965 430.727C774.965 407.473 819.998 388.623 875.548 388.623C931.099 388.623 976.132 407.473 976.132 430.727Z" fill="white"/>
<path fill-rule="evenodd" clip-rule="evenodd" d="M783.54 205.964C778.574 210.458 775.965 215.273 775.965 220.207H776.55V224.24C777.575 227.761 779.938 231.19 783.54 234.449C788.506 238.943 795.749 243.036 804.783 246.493C822.844 253.406 847.863 257.702 875.548 257.702C903.233 257.702 928.253 253.406 946.314 246.493C955.348 243.036 962.59 238.943 967.556 234.449C972.522 229.956 975.132 225.141 975.132 220.207C975.132 215.273 972.522 210.458 967.556 205.964C962.59 201.471 955.348 197.378 946.314 193.921C928.253 187.008 903.233 182.712 875.548 182.712C847.863 182.712 822.844 187.008 804.783 193.921C795.749 197.378 788.506 201.471 783.54 205.964ZM774.55 224.52C774.165 223.11 773.965 221.671 773.965 220.207C773.965 214.511 776.985 209.199 782.198 204.481C787.412 199.764 794.9 195.562 804.068 192.053C822.41 185.033 847.683 180.712 875.548 180.712C903.414 180.712 928.686 185.033 947.029 192.053C956.197 195.562 963.685 199.764 968.898 204.481C974.112 209.199 977.132 214.511 977.132 220.207H977.716V430.727H977.132C977.132 436.887 974.145 442.666 968.931 447.826C963.72 452.983 956.231 457.581 947.058 461.421C928.706 469.103 903.423 473.83 875.548 473.83C847.673 473.83 822.391 469.103 804.039 461.421C794.865 457.581 787.377 452.983 782.166 447.826C776.952 442.666 773.965 436.887 773.965 430.727C773.965 429.135 774.164 427.569 774.55 426.033V224.52ZM776.55 420.946V229.191C777.934 231.546 779.842 233.8 782.198 235.932C787.412 240.65 794.9 244.852 804.068 248.361C822.41 255.381 847.683 259.702 875.548 259.702C903.414 259.702 928.686 255.381 947.029 248.361C956.197 244.852 963.685 240.65 968.898 235.932C972.012 233.115 974.344 230.085 975.716 226.888V423.456C974.352 419.993 972.036 416.701 968.931 413.627C963.72 408.47 956.231 403.872 947.058 400.032C928.706 392.35 903.423 387.623 875.548 387.623C847.673 387.623 822.391 392.35 804.039 400.032C794.865 403.872 787.377 408.47 782.166 413.627C779.82 415.949 777.925 418.396 776.55 420.946ZM775.965 430.727H776.55V426.29C777.582 422.395 779.964 418.621 783.573 415.049C788.542 410.131 795.783 405.656 804.811 401.877C822.864 394.32 847.873 389.623 875.548 389.623C903.224 389.623 928.233 394.32 946.285 401.877C955.314 405.656 962.555 410.131 967.524 415.049C972.489 419.963 975.132 425.26 975.132 430.727C975.132 436.193 972.489 441.49 967.524 446.405C962.555 451.322 955.314 455.797 946.285 459.576C928.233 467.133 903.224 471.83 875.548 471.83C847.873 471.83 822.864 467.133 804.811 459.576C795.783 455.797 788.542 451.322 783.573 446.405C778.608 441.49 775.965 436.193 775.965 430.727Z" fill="black"/>
<path d="M976.132 220.207C976.132 241.467 931.099 258.702 875.548 258.702C819.998 258.702 774.965 241.467 774.965 220.207C774.965 198.947 819.998 181.712 875.548 181.712C931.099 181.712 976.132 198.947 976.132 220.207Z" fill="white"/>
<path d="M976.132 430.727C976.132 453.98 931.099 472.83 875.548 472.83C819.998 472.83 774.965 453.98 774.965 430.727C774.965 407.473 819.998 388.623 875.548 388.623C931.099 388.623 976.132 407.473 976.132 430.727Z" fill="white"/>
<path fill-rule="evenodd" clip-rule="evenodd" d="M784.547 207.077C779.766 211.402 777.465 215.843 777.465 220.207H778.05V224.018C779.008 227.136 781.152 230.266 784.547 233.337C789.327 237.663 796.385 241.673 805.319 245.092C823.169 251.924 847.998 256.202 875.548 256.202C903.098 256.202 927.927 251.924 945.778 245.092C954.712 241.673 961.769 237.663 966.55 233.337C971.33 229.012 973.632 224.57 973.632 220.207C973.632 215.843 971.33 211.402 966.55 207.077C961.769 202.751 954.712 198.741 945.778 195.322C927.927 188.49 903.098 184.212 875.548 184.212C847.998 184.212 823.169 188.49 805.319 195.322C796.385 198.741 789.327 202.751 784.547 207.077ZM773.05 224.72C772.666 223.253 772.465 221.748 772.465 220.207C772.465 213.94 775.793 208.255 781.192 203.369C786.591 198.484 794.263 194.199 803.532 190.652C822.085 183.551 847.548 179.212 875.548 179.212C903.549 179.212 929.011 183.551 947.565 190.652C956.833 194.199 964.506 198.484 969.905 203.369C975.304 208.255 978.632 213.94 978.632 220.207H979.216V430.727H978.632C978.632 437.407 975.387 443.547 969.986 448.892C964.594 454.228 956.919 458.919 947.637 462.805C929.061 470.58 903.572 475.33 875.548 475.33C847.524 475.33 822.036 470.58 803.46 462.805C794.177 458.919 786.503 454.228 781.111 448.892C775.71 443.547 772.465 437.407 772.465 430.727C772.465 429.066 772.666 427.439 773.05 425.849V224.72ZM778.05 415.972V233.832C778.996 234.938 780.048 236.009 781.192 237.045C786.591 241.93 794.263 246.215 803.532 249.762C822.085 256.863 847.548 261.202 875.548 261.202C903.549 261.202 929.011 256.863 947.565 249.762C956.833 246.215 964.506 241.93 969.905 237.045C971.545 235.561 972.994 234.003 974.216 232.377V417.552C973.018 415.822 971.598 414.156 969.986 412.561C964.594 407.225 956.919 402.534 947.637 398.648C929.061 390.873 903.572 386.123 875.548 386.123C847.524 386.123 822.036 390.873 803.46 398.648C794.177 402.534 786.503 407.225 781.111 412.561C779.995 413.665 778.972 414.803 778.05 415.972ZM777.465 430.727H778.05V426.491C779.024 422.975 781.215 419.492 784.628 416.115C789.416 411.376 796.471 406.994 805.391 403.261C823.219 395.798 848.022 391.123 875.548 391.123C903.075 391.123 927.878 395.798 945.706 403.261C954.626 406.994 961.681 411.376 966.469 416.115C971.247 420.844 973.632 425.78 973.632 430.727C973.632 435.673 971.247 440.609 966.469 445.338C961.681 450.077 954.626 454.459 945.706 458.192C927.878 465.655 903.075 470.33 875.548 470.33C848.022 470.33 823.219 465.655 805.391 458.192C796.471 454.459 789.416 450.077 784.628 445.338C779.849 440.609 777.465 435.673 777.465 430.727Z" fill="black"/>
<path fill-rule="evenodd" clip-rule="evenodd" d="M854.712 424.673C849.409 427.623 846.309 431.599 846.309 435.842H846.482V437.572C847.202 441.156 850.137 444.465 854.712 447.011C859.993 449.948 867.328 451.784 875.462 451.784C883.596 451.784 890.931 449.948 896.211 447.011C901.515 444.06 904.615 440.084 904.615 435.842C904.615 431.599 901.515 427.623 896.211 424.673C890.931 421.735 883.596 419.9 875.462 419.9C867.328 419.9 859.993 421.735 854.712 424.673ZM845.312 437.698C845.198 437.09 845.139 436.471 845.139 435.842C845.139 430.947 848.697 426.652 854.156 423.615C859.638 420.565 867.172 418.697 875.462 418.697C883.752 418.697 891.285 420.565 896.768 423.615C902.227 426.652 905.784 430.947 905.784 435.842H905.957V526.313H905.784C905.784 531.608 902.261 536.295 896.787 539.625C891.301 542.963 883.76 545.009 875.462 545.009C867.164 545.009 859.623 542.963 854.136 539.625C848.663 536.295 845.139 531.608 845.139 526.313C845.139 525.629 845.198 524.955 845.312 524.294V437.698ZM846.482 520.773V440.932C847.991 443.705 850.69 446.141 854.156 448.069C859.638 451.119 867.172 452.986 875.462 452.986C883.752 452.986 891.285 451.119 896.768 448.069C900.517 445.983 903.369 443.304 904.788 440.245V521.521C903.375 518.204 900.539 515.284 896.787 513.001C891.301 509.662 883.76 507.617 875.462 507.617C867.164 507.617 859.623 509.662 854.136 513.001C850.669 515.11 847.984 517.765 846.482 520.773ZM846.309 526.313H846.482V524.409C847.205 520.445 850.165 516.815 854.732 514.036C860.009 510.825 867.336 508.82 875.462 508.82C883.587 508.82 890.915 510.825 896.192 514.036C901.481 517.255 904.615 521.615 904.615 526.313C904.615 531.011 901.481 535.371 896.192 538.59C890.915 541.8 883.587 543.806 875.462 543.806C867.336 543.806 860.009 541.8 854.732 538.59C849.442 535.371 846.309 531.011 846.309 526.313Z" fill="black"/>
<path fill-rule="evenodd" clip-rule="evenodd" d="M853.67 422.741C859.327 419.594 867.035 417.697 875.462 417.697C883.889 417.697 891.597 419.594 897.254 422.741C902.506 425.663 906.29 429.858 906.739 434.842H906.957V527.313H906.746C906.331 532.663 902.615 537.25 897.307 540.479C891.64 543.928 883.913 546.009 875.462 546.009C867.011 546.009 859.284 543.928 853.617 540.479C847.981 537.05 844.139 532.091 844.139 526.313C844.139 525.601 844.198 524.9 844.312 524.21V437.789C844.198 437.151 844.139 436.501 844.139 435.842C844.139 430.42 848.07 425.856 853.67 422.741ZM904.957 522.445V521.69L904.692 521.744C904.787 521.976 904.876 522.21 904.957 522.445ZM904.957 440.062V439.39C904.879 439.597 904.795 439.802 904.703 440.006L904.957 440.062ZM846.54 440.662C846.461 440.511 846.385 440.358 846.312 440.204V440.72L846.54 440.662ZM846.312 520.969L846.555 521.026C846.47 521.202 846.389 521.378 846.312 521.556V520.969ZM847.362 527.313H847.482V524.501C848.164 520.946 850.866 517.559 855.252 514.89C860.347 511.79 867.489 509.82 875.462 509.82C883.435 509.82 890.576 511.79 895.672 514.89C900.798 518.009 903.615 522.097 903.615 526.313C903.615 530.529 900.798 534.617 895.672 537.735C890.576 540.836 883.435 542.806 875.462 542.806C867.489 542.806 860.347 540.836 855.252 537.735C850.532 534.864 847.77 531.171 847.362 527.313ZM847.482 517.389C849.079 515.396 851.176 513.632 853.617 512.146C859.284 508.698 867.011 506.617 875.462 506.617C883.913 506.617 891.64 508.698 897.307 512.146C899.927 513.741 902.152 515.658 903.788 517.835V443.678C902.134 445.707 899.884 447.479 897.254 448.943C891.597 452.09 883.889 453.986 875.462 453.986C867.035 453.986 859.327 452.09 853.67 448.943C851.217 447.578 849.097 445.946 847.482 444.089V517.389ZM847.375 434.842H847.482V437.469C848.154 440.618 850.798 443.689 855.199 446.137C860.304 448.977 867.465 450.784 875.462 450.784C883.458 450.784 890.62 448.977 895.725 446.137C900.887 443.265 903.615 439.557 903.615 435.842C903.615 432.126 900.887 428.418 895.725 425.547C890.62 422.706 883.458 420.9 875.462 420.9C867.465 420.9 860.304 422.706 855.199 425.547C850.5 428.16 847.818 431.467 847.375 434.842Z" fill="black"/>
<path fill-rule="evenodd" clip-rule="evenodd" d="M803.028 400.652L801.865 193.742L803.865 193.73L805.028 400.64L803.028 400.652Z" fill="black"/>
<path fill-rule="evenodd" clip-rule="evenodd" d="M948.055 400.652L946.892 193.742L948.892 193.73L950.055 400.64L948.055 400.652Z" fill="black"/>
<path fill-rule="evenodd" clip-rule="evenodd" d="M875.57 388.622L874.379 181.712L876.379 181.7L877.57 388.611L875.57 388.622Z" fill="black"/>
<path d="M921.632 287.272C921.632 314.202 900.903 336.033 875.332 336.033C849.762 336.033 829.032 314.202 829.032 287.272C829.032 260.342 849.762 238.511 875.332 238.511C900.903 238.511 921.632 260.342 921.632 287.272Z" fill="black"/>
<path fill-rule="evenodd" clip-rule="evenodd" d="M875.332 334.033C899.702 334.033 919.632 313.196 919.632 287.272C919.632 261.347 899.702 240.511 875.332 240.511C850.962 240.511 831.032 261.347 831.032 287.272C831.032 313.196 850.962 334.033 875.332 334.033ZM875.332 336.033C900.903 336.033 921.632 314.202 921.632 287.272C921.632 260.342 900.903 238.511 875.332 238.511C849.762 238.511 829.032 260.342 829.032 287.272C829.032 314.202 849.762 336.033 875.332 336.033Z" fill="black"/>
<path d="M886.193 286.67C886.193 293.319 881.074 298.709 874.761 298.709C868.447 298.709 863.329 293.319 863.329 286.67C863.329 280.02 868.447 274.63 874.761 274.63C881.074 274.63 886.193 280.02 886.193 286.67Z" fill="white"/>
<path fill-rule="evenodd" clip-rule="evenodd" d="M874.761 296.709C879.874 296.709 884.193 292.313 884.193 286.67C884.193 281.026 879.874 276.63 874.761 276.63C869.648 276.63 865.329 281.026 865.329 286.67C865.329 292.313 869.648 296.709 874.761 296.709ZM874.761 298.709C881.074 298.709 886.193 293.319 886.193 286.67C886.193 280.02 881.074 274.63 874.761 274.63C868.447 274.63 863.329 280.02 863.329 286.67C863.329 293.319 868.447 298.709 874.761 298.709Z" fill="black"/>
<path d="M880.477 286.67C880.477 289.994 877.918 292.69 874.761 292.69C871.604 292.69 869.045 289.994 869.045 286.67C869.045 283.345 871.604 280.65 874.761 280.65C877.918 280.65 880.477 283.345 880.477 286.67Z" fill="black"/>
<path fill-rule="evenodd" clip-rule="evenodd" d="M874.761 290.69C876.717 290.69 878.477 288.989 878.477 286.67C878.477 284.351 876.717 282.65 874.761 282.65C872.805 282.65 871.045 284.351 871.045 286.67C871.045 288.989 872.805 290.69 874.761 290.69ZM874.761 292.69C877.918 292.69 880.477 289.994 880.477 286.67C880.477 283.345 877.918 280.65 874.761 280.65C871.604 280.65 869.045 283.345 869.045 286.67C869.045 289.994 871.604 292.69 874.761 292.69Z" fill="black"/>
<g filter="url(#filter0_d)">
<path d="M698.79 120L742.992 129.351L653.242 613.384L609.04 604.032L698.79 120Z" fill="black"/>
</g>
<g filter="url(#filter1_d)">
<path fill-rule="evenodd" clip-rule="evenodd" d="M741.831 130.128L699.586 121.19L610.201 603.256L652.446 612.194L741.831 130.128ZM698.79 120L609.04 604.032L653.242 613.384L742.992 129.351L698.79 120Z" fill="black"/>
</g>
<path fill-rule="evenodd" clip-rule="evenodd" d="M874.589 300.814C880.443 300.814 887.126 295.378 887.126 286.2C887.126 277.022 880.443 271.586 874.589 271.586C868.735 271.586 862.052 277.022 862.052 286.2C862.052 295.378 868.735 300.814 874.589 300.814ZM874.589 317.814C890.902 317.814 904.126 303.66 904.126 286.2C904.126 268.74 890.902 254.586 874.589 254.586C858.276 254.586 845.052 268.74 845.052 286.2C845.052 303.66 858.276 317.814 874.589 317.814Z" fill="white"/>
<path d="M1296.61 672C1296.61 682.493 1094.44 691 845.052 691C595.661 691 393.49 682.493 393.49 672C393.49 661.507 595.661 653 845.052 653C1094.44 653 1296.61 661.507 1296.61 672Z" fill="black"/>
<defs>
<filter id="filter0_d" x="605.04" y="120" width="141.951" height="501.384" filterUnits="userSpaceOnUse" color-interpolation-filters="sRGB">
<feFlood flood-opacity="0" result="BackgroundImageFix"/>
<feColorMatrix in="SourceAlpha" type="matrix" values="0 0 0 0 0 0 0 0 0 0 0 0 0 0 0 0 0 0 127 0"/>
<feOffset dy="4"/>
<feGaussianBlur stdDeviation="2"/>
<feColorMatrix type="matrix" values="0 0 0 0 0 0 0 0 0 0 0 0 0 0 0 0 0 0 0.25 0"/>
<feBlend mode="normal" in2="BackgroundImageFix" result="effect1_dropShadow"/>
<feBlend mode="normal" in="SourceGraphic" in2="effect1_dropShadow" result="shape"/>
</filter>
<filter id="filter1_d" x="605.04" y="120" width="141.951" height="501.384" filterUnits="userSpaceOnUse" color-interpolation-filters="sRGB">
<feFlood flood-opacity="0" result="BackgroundImageFix"/>
<feColorMatrix in="SourceAlpha" type="matrix" values="0 0 0 0 0 0 0 0 0 0 0 0 0 0 0 0 0 0 127 0"/>
<feOffset dy="4"/>
<feGaussianBlur stdDeviation="2"/>
<feColorMatrix type="matrix" values="0 0 0 0 0 0 0 0 0 0 0 0 0 0 0 0 0 0 0.25 0"/>
<feBlend mode="normal" in2="BackgroundImageFix" result="effect1_dropShadow"/>
<feBlend mode="normal" in="SourceGraphic" in2="effect1_dropShadow" result="shape"/>
</filter>
</defs>
</svg>
